<svg width="114" height="74" viewBox="0 0 114 74" fill="none" xmlns="http://www.w3.org/2000/svg">
<circle cx="2.18182" cy="2.18182" r="2.18182" fill="#6D5B41"/>
<circle cx="68.1818" cy="2.18182" r="2.18182" fill="#6D5B41"/>
<circle cx="2.18182" cy="26.9091" r="2.18182" fill="#6D5B41"/>
<circle cx="68.1818" cy="26.9091" r="2.18182" fill="#6D5B41"/>
<circle cx="2.18182" cy="51.6364" r="2.18182" fill="#6D5B41"/>
<circle cx="2.18182" cy="71.6364" r="2.18182" fill="#6D5B41"/>
<circle cx="68.1818" cy="51.6364" r="2.18182" fill="#6D5B41"/>
<circle cx="68.1818" cy="71.6364" r="2.18182" fill="#6D5B41"/>
<circle cx="24" cy="2.18182" r="2.18182" fill="#6D5B41"/>
<circle cx="90.0001" cy="2.18182" r="2.18182" fill="#6D5B41"/>
<circle cx="24" cy="26.9091" r="2.18182" fill="#6D5B41"/>
<circle cx="90.0001" cy="26.9091" r="2.18182" fill="#6D5B41"/>
<circle cx="24" cy="51.6364" r="2.18182" fill="#6D5B41"/>
<circle cx="24.0001" cy="71.6364" r="2.18182" fill="#6D5B41"/>
<circle cx="90.0001" cy="51.6364" r="2.18182" fill="#6D5B41"/>
<circle cx="90.0001" cy="71.6364" r="2.18182" fill="#6D5B41"/>
<circle cx="45.8182" cy="2.18182" r="2.18182" fill="#6D5B41"/>
<circle cx="111.818" cy="2.18182" r="2.18182" fill="#6D5B41"/>
<circle cx="45.8182" cy="26.9091" r="2.18182" fill="#6D5B41"/>
<circle cx="111.818" cy="26.9091" r="2.18182" fill="#6D5B41"/>
<circle cx="45.8182" cy="51.6364" r="2.18182" fill="#6D5B41"/>
<circle cx="45.8182" cy="71.6364" r="2.18182" fill="#6D5B41"/>
<circle cx="111.818" cy="51.6364" r="2.18182" fill="#6D5B41"/>
<circle cx="111.818" cy="71.6364" r="2.18182" fill="#6D5B41"/>
</svg>
