<svg width="174" height="49" viewBox="0 0 174 49" fill="none" xmlns="http://www.w3.org/2000/svg">
<path d="M33.0281 0H0V33.0281C0 41.4609 6.84455 48.3054 15.2773 48.3054H48.3054V15.2773C48.3054 6.84455 41.4609 0 33.0281 0Z" fill="#6D5C41"/>
<path d="M40.6176 37.6381C40.1678 37.7505 39.69 37.8208 39.1981 37.8348C38.7343 37.8629 38.2424 37.8629 37.7224 37.8629H37.7083L32.6908 37.7083L32.3816 36.8651L32.5222 36.7386C32.8314 36.4715 33.3092 35.9796 33.9417 35.2769C34.5741 34.5882 35.5298 33.5482 36.851 32.1287C37.3288 31.6087 37.8207 31.0184 38.3407 30.3719C38.8467 29.7394 39.3105 29.0507 39.7322 28.334C40.1257 27.6734 40.2381 27.1815 40.4068 26.4507L40.4208 26.3804C40.5895 25.6355 40.5754 25.1857 40.5473 24.7219C40.5333 24.5533 40.5333 24.3706 40.5333 24.1879C40.5333 23.5554 40.4208 22.9651 40.21 22.4451C39.9992 21.9532 39.4932 21.2364 39.4932 21.2364C39.3105 21.0116 39.1137 20.8148 38.9029 20.6321C38.397 20.1823 37.7926 19.831 37.1321 19.592C36.4574 19.3391 35.7407 19.2126 34.9958 19.2126C34.2087 19.2126 33.4919 19.3531 32.9017 19.6202C32.2973 19.9012 31.7773 20.2807 31.3416 20.7445C30.8919 21.2224 30.5264 21.7986 30.2453 22.4592C30.2172 22.5294 30.1891 22.6138 30.161 22.684C30.3156 22.4873 30.4843 22.3046 30.6529 22.1359C31.0183 21.7564 31.44 21.4472 31.9038 21.1943C32.3957 20.9272 33.0422 20.7867 33.8011 20.7867C34.546 20.7867 35.2347 20.9272 35.8531 21.2083C36.4574 21.4894 36.9915 21.8689 37.4132 22.3327C37.8348 22.8105 38.158 23.3587 38.3829 23.9771C38.5937 24.5814 38.7062 25.2279 38.7062 25.9025C38.7062 26.8723 38.4813 27.8842 38.0316 28.8961C37.5959 29.88 36.9915 30.92 36.2185 32.0022C35.839 32.5503 35.3331 33.1406 34.7006 33.7731C34.5741 33.8996 34.4476 34.026 34.3071 34.1666L33.3373 35.1645C33.1546 35.3472 32.986 35.5299 32.7892 35.7126C32.1287 36.4013 31.454 37.1321 30.7794 37.9051C30.3437 38.4111 29.9221 38.9451 29.5286 39.5073H40.7722C40.8143 39.4651 40.8706 39.3808 40.9408 39.2543C41.1235 38.917 41.3203 38.5235 41.503 38.0597C41.6155 37.7645 41.7279 37.4553 41.8403 37.1602C41.4468 37.3851 41.0392 37.5397 40.6176 37.6381Z" fill="white"/>
<path d="M40.6176 37.6381C40.1678 37.7505 39.69 37.8208 39.1981 37.8348C38.7343 37.8629 38.2424 37.8629 37.7224 37.8629H37.7083L32.6908 37.7083L32.3816 36.8651L32.5222 36.7386C32.8314 36.4715 33.3092 35.9796 33.9417 35.2769C34.5741 34.5882 35.5298 33.5482 36.851 32.1287C37.3288 31.6087 37.8207 31.0184 38.3407 30.3719C38.8467 29.7394 39.3105 29.0507 39.7322 28.334C40.1257 27.6734 40.2381 27.1815 40.4068 26.4507L40.4208 26.3804C40.5895 25.6355 40.5754 25.1857 40.5473 24.7219C40.5333 24.5533 40.5333 24.3706 40.5333 24.1879C40.5333 23.5554 40.4208 22.9651 40.21 22.4451C39.9992 21.9532 39.4932 21.2364 39.4932 21.2364C39.3105 21.0116 39.1137 20.8148 38.9029 20.6321C38.397 20.1823 37.7926 19.831 37.1321 19.592C36.4574 19.3391 35.7407 19.2126 34.9958 19.2126C34.2087 19.2126 33.4919 19.3531 32.9017 19.6202C32.2973 19.9012 31.7773 20.2807 31.3416 20.7445C30.8919 21.2224 30.5264 21.7986 30.2453 22.4592C30.2172 22.5294 30.1891 22.6138 30.161 22.684C30.3156 22.4873 30.4843 22.3046 30.6529 22.1359C31.0183 21.7564 31.44 21.4472 31.9038 21.1943C32.3957 20.9272 33.0422 20.7867 33.8011 20.7867C34.546 20.7867 35.2347 20.9272 35.8531 21.2083C36.4574 21.4894 36.9915 21.8689 37.4132 22.3327C37.8348 22.8105 38.158 23.3587 38.3829 23.9771C38.5937 24.5814 38.7062 25.2279 38.7062 25.9025C38.7062 26.8723 38.4813 27.8842 38.0316 28.8961C37.5959 29.88 36.9915 30.92 36.2185 32.0022C35.839 32.5503 35.3331 33.1406 34.7006 33.7731C34.5741 33.8996 34.4476 34.026 34.3071 34.1666L33.3373 35.1645C33.1546 35.3472 32.986 35.5299 32.7892 35.7126C32.1287 36.4013 31.454 37.1321 30.7794 37.9051C30.3437 38.4111 29.9221 38.9451 29.5286 39.5073H40.7722C40.8143 39.4651 40.8706 39.3808 40.9408 39.2543C41.1235 38.917 41.3203 38.5235 41.503 38.0597C41.6155 37.7645 41.7279 37.4553 41.8403 37.1602C41.4468 37.3851 41.0392 37.5397 40.6176 37.6381Z" fill="white"/>
<path d="M40.6176 37.6381C40.1678 37.7505 39.69 37.8208 39.1981 37.8348C38.7343 37.8629 38.2424 37.8629 37.7224 37.8629H37.7083L32.6908 37.7083L32.3816 36.8651L32.5222 36.7386C32.8314 36.4715 33.3092 35.9796 33.9417 35.2769C34.5741 34.5882 35.5298 33.5482 36.851 32.1287C37.3288 31.6087 37.8207 31.0184 38.3407 30.3719C38.8467 29.7394 39.3105 29.0507 39.7322 28.334C40.1257 27.6734 40.2381 27.1815 40.4068 26.4507L40.4208 26.3804C40.5895 25.6355 40.5754 25.1857 40.5473 24.7219C40.5333 24.5533 40.5333 24.3706 40.5333 24.1879C40.5333 23.5554 40.4208 22.9651 40.21 22.4451C39.9992 21.9532 39.4932 21.2364 39.4932 21.2364C39.3105 21.0116 39.1137 20.8148 38.9029 20.6321C38.397 20.1823 37.7926 19.831 37.1321 19.592C36.4574 19.3391 35.7407 19.2126 34.9958 19.2126C34.2087 19.2126 33.4919 19.3531 32.9017 19.6202C32.2973 19.9012 31.7773 20.2807 31.3416 20.7445C30.8919 21.2224 30.5264 21.7986 30.2453 22.4592C30.2172 22.5294 30.1891 22.6138 30.161 22.684C30.3156 22.4873 30.4843 22.3046 30.6529 22.1359C31.0183 21.7564 31.44 21.4472 31.9038 21.1943C32.3957 20.9272 33.0422 20.7867 33.8011 20.7867C34.546 20.7867 35.2347 20.9272 35.8531 21.2083C36.4574 21.4894 36.9915 21.8689 37.4132 22.3327C37.8348 22.8105 38.158 23.3587 38.3829 23.9771C38.5937 24.5814 38.7062 25.2279 38.7062 25.9025C38.7062 26.8723 38.4813 27.8842 38.0316 28.8961C37.5959 29.88 36.9915 30.92 36.2185 32.0022C35.839 32.5503 35.3331 33.1406 34.7006 33.7731C34.5741 33.8996 34.4476 34.026 34.3071 34.1666L33.3373 35.1645C33.1546 35.3472 32.986 35.5299 32.7892 35.7126C32.1287 36.4013 31.454 37.1321 30.7794 37.9051C30.3437 38.4111 29.9221 38.9451 29.5286 39.5073H40.7722C40.8143 39.4651 40.8706 39.3808 40.9408 39.2543C41.1235 38.917 41.3203 38.5235 41.503 38.0597C41.6155 37.7645 41.7279 37.4553 41.8403 37.1602C41.4468 37.3851 41.0392 37.5397 40.6176 37.6381Z" fill="white"/>
<path d="M40.6176 37.6381C40.1678 37.7505 39.69 37.8208 39.1981 37.8348C38.7343 37.8629 38.2424 37.8629 37.7224 37.8629H37.7083L32.6908 37.7083L32.3816 36.8651L32.5222 36.7386C32.8314 36.4715 33.3092 35.9796 33.9417 35.2769C34.5741 34.5882 35.5298 33.5482 36.851 32.1287C37.3288 31.6087 37.8207 31.0184 38.3407 30.3719C38.8467 29.7394 39.3105 29.0507 39.7322 28.334C40.1257 27.6734 40.2381 27.1815 40.4068 26.4507L40.4208 26.3804C40.5895 25.6355 40.5754 25.1857 40.5473 24.7219C40.5333 24.5533 40.5333 24.3706 40.5333 24.1879C40.5333 23.5554 40.4208 22.9651 40.21 22.4451C39.9992 21.9532 39.4932 21.2364 39.4932 21.2364C39.3105 21.0116 39.1137 20.8148 38.9029 20.6321C38.397 20.1823 37.7926 19.831 37.1321 19.592C36.4574 19.3391 35.7407 19.2126 34.9958 19.2126C34.2087 19.2126 33.4919 19.3531 32.9017 19.6202C32.2973 19.9012 31.7773 20.2807 31.3416 20.7445C30.8919 21.2224 30.5264 21.7986 30.2453 22.4592C30.2172 22.5294 30.1891 22.6138 30.161 22.684C30.3156 22.4873 30.4843 22.3046 30.6529 22.1359C31.0183 21.7564 31.44 21.4472 31.9038 21.1943C32.3957 20.9272 33.0422 20.7867 33.8011 20.7867C34.546 20.7867 35.2347 20.9272 35.8531 21.2083C36.4574 21.4894 36.9915 21.8689 37.4132 22.3327C37.8348 22.8105 38.158 23.3587 38.3829 23.9771C38.5937 24.5814 38.7062 25.2279 38.7062 25.9025C38.7062 26.8723 38.4813 27.8842 38.0316 28.8961C37.5959 29.88 36.9915 30.92 36.2185 32.0022C35.839 32.5503 35.3331 33.1406 34.7006 33.7731C34.5741 33.8996 34.4476 34.026 34.3071 34.1666L33.3373 35.1645C33.1546 35.3472 32.986 35.5299 32.7892 35.7126C32.1287 36.4013 31.454 37.1321 30.7794 37.9051C30.3437 38.4111 29.9221 38.9451 29.5286 39.5073H40.7722C40.8143 39.4651 40.8706 39.3808 40.9408 39.2543C41.1235 38.917 41.3203 38.5235 41.503 38.0597C41.6155 37.7645 41.7279 37.4553 41.8403 37.1602C41.4468 37.3851 41.0392 37.5397 40.6176 37.6381Z" fill="white"/>
<path d="M40.6176 37.6381C40.1678 37.7505 39.69 37.8208 39.1981 37.8348C38.7343 37.8629 38.2424 37.8629 37.7224 37.8629H37.7083L32.6908 37.7083L32.3816 36.8651L32.5222 36.7386C32.8314 36.4715 33.3092 35.9796 33.9417 35.2769C34.5741 34.5882 35.5298 33.5482 36.851 32.1287C37.3288 31.6087 37.8207 31.0184 38.3407 30.3719C38.8467 29.7394 39.3105 29.0507 39.7322 28.334C40.1257 27.6734 40.2381 27.1815 40.4068 26.4507L40.4208 26.3804C40.5895 25.6355 40.5754 25.1857 40.5473 24.7219C40.5333 24.5533 40.5333 24.3706 40.5333 24.1879C40.5333 23.5554 40.4208 22.9651 40.21 22.4451C39.9992 21.9532 39.4932 21.2364 39.4932 21.2364C39.3105 21.0116 39.1137 20.8148 38.9029 20.6321C38.397 20.1823 37.7926 19.831 37.1321 19.592C36.4574 19.3391 35.7407 19.2126 34.9958 19.2126C34.2087 19.2126 33.4919 19.3531 32.9017 19.6202C32.2973 19.9012 31.7773 20.2807 31.3416 20.7445C30.8919 21.2224 30.5264 21.7986 30.2453 22.4592C30.2172 22.5294 30.1891 22.6138 30.161 22.684C30.3156 22.4873 30.4843 22.3046 30.6529 22.1359C31.0183 21.7564 31.44 21.4472 31.9038 21.1943C32.3957 20.9272 33.0422 20.7867 33.8011 20.7867C34.546 20.7867 35.2347 20.9272 35.8531 21.2083C36.4574 21.4894 36.9915 21.8689 37.4132 22.3327C37.8348 22.8105 38.158 23.3587 38.3829 23.9771C38.5937 24.5814 38.7062 25.2279 38.7062 25.9025C38.7062 26.8723 38.4813 27.8842 38.0316 28.8961C37.5959 29.88 36.9915 30.92 36.2185 32.0022C35.839 32.5503 35.3331 33.1406 34.7006 33.7731C34.5741 33.8996 34.4476 34.026 34.3071 34.1666L33.3373 35.1645C33.1546 35.3472 32.986 35.5299 32.7892 35.7126C32.1287 36.4013 31.454 37.1321 30.7794 37.9051C30.3437 38.4111 29.9221 38.9451 29.5286 39.5073H40.7722C40.8143 39.4651 40.8706 39.3808 40.9408 39.2543C41.1235 38.917 41.3203 38.5235 41.503 38.0597C41.6155 37.7645 41.7279 37.4553 41.8403 37.1602C41.4468 37.3851 41.0392 37.5397 40.6176 37.6381Z" fill="white"/>
<path d="M40.6176 37.6381C40.1678 37.7505 39.69 37.8208 39.1981 37.8348C38.7343 37.8629 38.2424 37.8629 37.7224 37.8629H37.7083L32.6908 37.7083L32.3816 36.8651L32.5222 36.7386C32.8314 36.4715 33.3092 35.9796 33.9417 35.2769C34.5741 34.5882 35.5298 33.5482 36.851 32.1287C37.3288 31.6087 37.8207 31.0184 38.3407 30.3719C38.8467 29.7394 39.3105 29.0507 39.7322 28.334C40.1257 27.6734 40.2381 27.1815 40.4068 26.4507L40.4208 26.3804C40.5895 25.6355 40.5754 25.1857 40.5473 24.7219C40.5333 24.5533 40.5333 24.3706 40.5333 24.1879C40.5333 23.5554 40.4208 22.9651 40.21 22.4451C39.9992 21.9532 39.4932 21.2364 39.4932 21.2364C39.3105 21.0116 39.1137 20.8148 38.9029 20.6321C38.397 20.1823 37.7926 19.831 37.1321 19.592C36.4574 19.3391 35.7407 19.2126 34.9958 19.2126C34.2087 19.2126 33.4919 19.3531 32.9017 19.6202C32.2973 19.9012 31.7773 20.2807 31.3416 20.7445C30.8919 21.2224 30.5264 21.7986 30.2453 22.4592C30.2172 22.5294 30.1891 22.6138 30.161 22.684C30.3156 22.4873 30.4843 22.3046 30.6529 22.1359C31.0183 21.7564 31.44 21.4472 31.9038 21.1943C32.3957 20.9272 33.0422 20.7867 33.8011 20.7867C34.546 20.7867 35.2347 20.9272 35.8531 21.2083C36.4574 21.4894 36.9915 21.8689 37.4132 22.3327C37.8348 22.8105 38.158 23.3587 38.3829 23.9771C38.5937 24.5814 38.7062 25.2279 38.7062 25.9025C38.7062 26.8723 38.4813 27.8842 38.0316 28.8961C37.5959 29.88 36.9915 30.92 36.2185 32.0022C35.839 32.5503 35.3331 33.1406 34.7006 33.7731C34.5741 33.8996 34.4476 34.026 34.3071 34.1666L33.3373 35.1645C33.1546 35.3472 32.986 35.5299 32.7892 35.7126C32.1287 36.4013 31.454 37.1321 30.7794 37.9051C30.3437 38.4111 29.9221 38.9451 29.5286 39.5073H40.7722C40.8143 39.4651 40.8706 39.3808 40.9408 39.2543C41.1235 38.917 41.3203 38.5235 41.503 38.0597C41.6155 37.7645 41.7279 37.4553 41.8403 37.1602C41.4468 37.3851 41.0392 37.5397 40.6176 37.6381Z" fill="white"/>
<path d="M40.6176 37.6381C40.1678 37.7505 39.69 37.8208 39.1981 37.8348C38.7343 37.8629 38.2424 37.8629 37.7224 37.8629H37.7083L32.6908 37.7083L32.3816 36.8651L32.5222 36.7386C32.8314 36.4715 33.3092 35.9796 33.9417 35.2769C34.5741 34.5882 35.5298 33.5482 36.851 32.1287C37.3288 31.6087 37.8207 31.0184 38.3407 30.3719C38.8467 29.7394 39.3105 29.0507 39.7322 28.334C40.1257 27.6734 40.2381 27.1815 40.4068 26.4507L40.4208 26.3804C40.5895 25.6355 40.5754 25.1857 40.5473 24.7219C40.5333 24.5533 40.5333 24.3706 40.5333 24.1879C40.5333 23.5554 40.4208 22.9651 40.21 22.4451C39.9992 21.9532 39.4932 21.2364 39.4932 21.2364C39.3105 21.0116 39.1137 20.8148 38.9029 20.6321C38.397 20.1823 37.7926 19.831 37.1321 19.592C36.4574 19.3391 35.7407 19.2126 34.9958 19.2126C34.2087 19.2126 33.4919 19.3531 32.9017 19.6202C32.2973 19.9012 31.7773 20.2807 31.3416 20.7445C30.8919 21.2224 30.5264 21.7986 30.2453 22.4592C30.2172 22.5294 30.1891 22.6138 30.161 22.684C30.3156 22.4873 30.4843 22.3046 30.6529 22.1359C31.0183 21.7564 31.44 21.4472 31.9038 21.1943C32.3957 20.9272 33.0422 20.7867 33.8011 20.7867C34.546 20.7867 35.2347 20.9272 35.8531 21.2083C36.4574 21.4894 36.9915 21.8689 37.4132 22.3327C37.8348 22.8105 38.158 23.3587 38.3829 23.9771C38.5937 24.5814 38.7062 25.2279 38.7062 25.9025C38.7062 26.8723 38.4813 27.8842 38.0316 28.8961C37.5959 29.88 36.9915 30.92 36.2185 32.0022C35.839 32.5503 35.3331 33.1406 34.7006 33.7731C34.5741 33.8996 34.4476 34.026 34.3071 34.1666L33.3373 35.1645C33.1546 35.3472 32.986 35.5299 32.7892 35.7126C32.1287 36.4013 31.454 37.1321 30.7794 37.9051C30.3437 38.4111 29.9221 38.9451 29.5286 39.5073H40.7722C40.8143 39.4651 40.8706 39.3808 40.9408 39.2543C41.1235 38.917 41.3203 38.5235 41.503 38.0597C41.6155 37.7645 41.7279 37.4553 41.8403 37.1602C41.4468 37.3851 41.0392 37.5397 40.6176 37.6381Z" fill="white"/>
<path d="M40.6176 37.6381C40.1678 37.7505 39.69 37.8208 39.1981 37.8348C38.7343 37.8629 38.2424 37.8629 37.7224 37.8629H37.7083L32.6908 37.7083L32.3816 36.8651L32.5222 36.7386C32.8314 36.4715 33.3092 35.9796 33.9417 35.2769C34.5741 34.5882 35.5298 33.5482 36.851 32.1287C37.3288 31.6087 37.8207 31.0184 38.3407 30.3719C38.8467 29.7394 39.3105 29.0507 39.7322 28.334C40.1257 27.6734 40.2381 27.1815 40.4068 26.4507L40.4208 26.3804C40.5895 25.6355 40.5754 25.1857 40.5473 24.7219C40.5333 24.5533 40.5333 24.3706 40.5333 24.1879C40.5333 23.5554 40.4208 22.9651 40.21 22.4451C39.9992 21.9532 39.4932 21.2364 39.4932 21.2364C39.3105 21.0116 39.1137 20.8148 38.9029 20.6321C38.397 20.1823 37.7926 19.831 37.1321 19.592C36.4574 19.3391 35.7407 19.2126 34.9958 19.2126C34.2087 19.2126 33.4919 19.3531 32.9017 19.6202C32.2973 19.9012 31.7773 20.2807 31.3416 20.7445C30.8919 21.2224 30.5264 21.7986 30.2453 22.4592C30.2172 22.5294 30.1891 22.6138 30.161 22.684C30.3156 22.4873 30.4843 22.3046 30.6529 22.1359C31.0183 21.7564 31.44 21.4472 31.9038 21.1943C32.3957 20.9272 33.0422 20.7867 33.8011 20.7867C34.546 20.7867 35.2347 20.9272 35.8531 21.2083C36.4574 21.4894 36.9915 21.8689 37.4132 22.3327C37.8348 22.8105 38.158 23.3587 38.3829 23.9771C38.5937 24.5814 38.7062 25.2279 38.7062 25.9025C38.7062 26.8723 38.4813 27.8842 38.0316 28.8961C37.5959 29.88 36.9915 30.92 36.2185 32.0022C35.839 32.5503 35.3331 33.1406 34.7006 33.7731C34.5741 33.8996 34.4476 34.026 34.3071 34.1666L33.3373 35.1645C33.1546 35.3472 32.986 35.5299 32.7892 35.7126C32.1287 36.4013 31.454 37.1321 30.7794 37.9051C30.3437 38.4111 29.9221 38.9451 29.5286 39.5073H40.7722C40.8143 39.4651 40.8706 39.3808 40.9408 39.2543C41.1235 38.917 41.3203 38.5235 41.503 38.0597C41.6155 37.7645 41.7279 37.4553 41.8403 37.1602C41.4468 37.3851 41.0392 37.5397 40.6176 37.6381Z" fill="white"/>
<path d="M39.1981 37.8348C38.7343 37.8629 38.2424 37.8629 37.7224 37.8629H37.7083L32.6908 37.7083L32.3816 36.8651L32.5222 36.7386C32.8314 36.4715 33.3092 35.9796 33.9417 35.2769C34.5741 34.5882 35.5298 33.5482 36.851 32.1287C37.3288 31.6087 37.8207 31.0184 38.3407 30.3719C38.8467 29.7394 39.3105 29.0507 39.7322 28.334C40.1257 27.6734 40.2381 27.1815 40.4068 26.4507L40.4208 26.3804C40.5895 25.6355 40.5754 25.1857 40.5473 24.7219C40.5333 24.5533 40.5333 24.3706 40.5333 24.1879C40.5333 23.5554 40.4208 22.9651 40.21 22.4451C39.9992 21.9532 39.4932 21.2364 39.4932 21.2364C39.3105 21.0116 39.1137 20.8148 38.9029 20.6321C38.397 20.1823 37.7926 19.831 37.1321 19.592C36.4574 19.3391 35.7407 19.2126 34.9958 19.2126C34.2087 19.2126 33.4919 19.3531 32.9017 19.6202C32.2973 19.9012 31.7773 20.2807 31.3416 20.7445C30.8919 21.2224 30.5264 21.7986 30.2453 22.4592C30.2172 22.5294 30.1891 22.6138 30.161 22.684C30.3156 22.4873 30.4843 22.3046 30.6529 22.1359C31.0183 21.7564 31.44 21.4472 31.9038 21.1943C32.3957 20.9272 33.0422 20.7867 33.8011 20.7867C34.546 20.7867 35.2347 20.9272 35.8531 21.2083C36.4574 21.4894 36.9915 21.8689 37.4132 22.3327C37.8348 22.8105 38.158 23.3587 38.3829 23.9771C38.5937 24.5814 38.7062 25.2279 38.7062 25.9025C38.7062 26.8723 38.4813 27.8842 38.0316 28.8961C37.5959 29.88 36.9915 30.92 36.2185 32.0022C35.839 32.5503 35.3331 33.1406 34.7006 33.7731C34.5741 33.8996 34.4476 34.026 34.3071 34.1666L33.3373 35.1645C33.1546 35.3472 32.986 35.5299 32.7892 35.7126C32.1287 36.4013 31.454 37.1321 30.7794 37.9051C30.3437 38.4111 29.9221 38.9451 29.5286 39.5073H40.7722C40.8143 39.4651 40.8706 39.3808 40.9408 39.2543C41.1235 38.917 41.3203 38.5235 41.503 38.0597C41.6155 37.7645 41.7279 37.4553 41.8403 37.1602C41.4468 37.3851 41.0392 37.5397 40.6316 37.6381C40.1678 37.7505 39.69 37.8208 39.1981 37.8348Z" fill="white"/>
<path d="M24.4689 6.97107H33.3092L33.6184 7.88461L33.4638 8.0111C33.1265 8.27814 32.747 8.4749 32.3395 8.60139C32.0865 8.68572 31.8335 8.85438 31.5805 9.10736C31.3275 9.37439 31.1167 9.81008 30.934 10.4285C30.7513 11.089 30.6529 12.101 30.6529 13.4643V18.7909C30.5545 18.8753 30.4702 18.9455 30.3718 19.0299C30.2734 19.1142 30.1891 19.2126 30.0907 19.2969C30.0767 19.3109 30.0626 19.3391 30.0486 19.3531L30.0345 19.3672C29.9502 19.4655 29.8659 19.5639 29.7815 19.6623C29.6832 19.7747 29.5988 19.8872 29.5004 19.9996V13.4783C29.5004 11.9885 29.6129 10.8782 29.8378 10.1193C30.0767 9.30412 30.3718 8.71383 30.7513 8.3203C30.8075 8.25003 30.8778 8.19381 30.934 8.1376H26.7739C26.8301 8.19381 26.8863 8.25003 26.9425 8.30625C27.2939 8.69978 27.5609 9.26196 27.7858 10.035C27.9966 10.7658 28.095 11.8339 28.095 13.2956V15.9941H26.9425V13.2956C26.9425 11.9604 26.8582 10.9626 26.6755 10.3442C26.5068 9.75387 26.3101 9.33223 26.0852 9.07925C25.8744 8.84032 25.6355 8.68572 25.4106 8.60139C25.0171 8.4749 24.6516 8.27814 24.3143 8.0111L24.1597 7.88461L24.4689 6.97107Z" fill="white"/>
<path d="M20.1682 37.9473C21.7705 37.9473 23.0213 37.5959 23.8927 36.9072C24.7922 36.2045 25.4668 35.2909 25.9165 34.1947C26.3803 33.0703 26.6755 31.8195 26.7739 30.4562C26.8863 29.0507 26.9425 27.7015 26.9425 26.4225V17.7931H28.095V26.4225C28.095 27.7296 28.0388 29.107 27.9263 30.5405C27.8139 32.0162 27.4906 33.3936 26.9847 34.6304C26.4647 35.9093 25.6636 36.9775 24.6095 37.8067C23.5273 38.664 22.0375 39.0997 20.1682 39.0997C18.6082 39.0997 17.3152 38.7905 16.3313 38.1581C15.3475 37.5397 14.5605 36.6683 14.0124 35.5861C13.4783 34.532 13.1129 33.2811 12.9302 31.8616C12.7474 30.4843 12.6631 28.9945 12.6631 27.4204V17.7931H13.8156V27.4204C13.8156 28.9383 13.8999 30.3859 14.0686 31.707C14.2372 33.0001 14.5605 34.1244 15.0243 35.052C15.474 35.9515 16.1205 36.6683 16.9216 37.1743C17.7368 37.6943 18.819 37.9473 20.1682 37.9473Z" fill="white"/>
<path d="M26.5068 39.1278C24.6095 40.6035 22.1078 41.3344 19.072 41.3344C17.8914 41.3344 16.753 41.222 15.6848 40.9971C14.5886 40.7582 13.5626 40.3646 12.635 39.8165C11.7074 39.2684 10.8782 38.5094 10.1474 37.5818C9.43058 36.6683 8.82624 35.5158 8.37649 34.1666L8.36244 34.1385C7.89864 32.5784 7.67377 29.9081 7.67377 25.9587V13.2956C7.67377 11.9604 7.58944 10.9626 7.40673 10.3442C7.23808 9.75387 7.04132 9.33223 6.81644 9.07925C6.60562 8.84032 6.38075 8.67167 6.15588 8.60139C5.77641 8.4749 5.42504 8.27814 5.08774 8.0111L4.93314 7.88461L5.24234 6.97107H16.1627L16.5 7.8565L16.3595 7.983C16.0503 8.25003 15.6989 8.46085 15.3194 8.58734C15.0946 8.67167 14.8697 8.82627 14.6589 9.06519C14.434 9.30412 14.2372 9.75387 14.0826 10.3301C13.914 10.9485 13.8156 11.9464 13.8156 13.2816V15.98H12.6631V13.2956C12.6631 11.8339 12.7615 10.7658 12.9723 10.035C13.1831 9.26196 13.4642 8.69978 13.8156 8.30625C13.8718 8.25003 13.928 8.19381 13.9843 8.1376H7.51917C7.57539 8.19381 7.63161 8.25003 7.68782 8.30625C8.03919 8.69978 8.30622 9.26196 8.5311 10.035C8.74191 10.7658 8.84029 11.8339 8.84029 13.2956V25.9587C8.84029 29.7394 9.05111 32.3817 9.47275 33.8012C9.89438 35.0239 10.4285 36.0639 11.0609 36.865C11.6934 37.6802 12.4242 38.3267 13.2253 38.8186C14.0405 39.3105 14.94 39.6619 15.9238 39.8587C16.9216 40.0695 17.9898 40.1819 19.072 40.1819C21.8407 40.1819 24.1035 39.5214 25.7901 38.2143C26.6474 37.5397 27.322 36.7667 27.7999 35.9374C28.2918 35.0942 28.6572 34.1666 28.8961 33.1968C29.135 32.213 29.3037 31.1449 29.374 30.0486C29.4583 28.9242 29.4864 27.7718 29.4864 26.6334V26.0993C29.5848 26.029 29.6691 25.9587 29.7675 25.8885C29.8659 25.8182 29.9502 25.7339 30.0486 25.6495C30.0626 25.6355 30.0767 25.6214 30.0907 25.6074C30.1891 25.523 30.2734 25.4247 30.3718 25.3403C30.4702 25.242 30.5686 25.1295 30.6529 25.0311V26.6334C30.6529 27.7999 30.6108 28.9805 30.5264 30.1329C30.4421 31.2995 30.2734 32.4238 30.0064 33.4779C29.7394 34.5601 29.3318 35.5861 28.7837 36.5277C28.2496 37.4834 27.4766 38.3548 26.5068 39.1278Z" fill="white"/>
<path d="M43.3582 35.6423C43.3301 35.9796 43.2458 36.4013 43.0771 36.9494C42.9225 37.4553 42.7398 37.9754 42.5431 38.4813C42.3463 39.0013 42.1355 39.4511 41.9106 39.8165C41.6998 40.196 41.3906 40.6317 40.9127 40.6317H28.362L27.9685 39.9289L28.0528 39.7884C28.615 38.8608 29.2615 37.9894 29.9642 37.1883C30.6529 36.4013 31.3416 35.6423 32.0162 34.9536C32.1989 34.7569 32.3816 34.5742 32.5643 34.3915L33.5341 33.3936L33.6044 33.3233C33.7168 33.2109 33.8152 33.1125 33.9276 33.0001C34.5039 32.4238 34.9677 31.8757 35.319 31.3838C36.0499 30.3578 36.6261 29.374 37.0337 28.4605C37.4131 27.5891 37.6099 26.7317 37.6099 25.9166C37.6099 25.3685 37.5256 24.8484 37.3569 24.3565C37.1883 23.8787 36.9353 23.457 36.612 23.0916C36.2888 22.7262 35.8812 22.4451 35.4174 22.2343C34.9536 22.0235 34.4195 21.911 33.8292 21.911C33.253 21.911 32.7892 22.0094 32.4519 22.1781C32.0865 22.3748 31.7492 22.6278 31.4681 22.923C31.1589 23.2322 30.8778 23.5835 30.6108 23.9349C30.3016 24.3565 29.908 24.736 29.4583 25.0593L29.3177 25.1576L28.5729 24.7079L28.601 24.5252C28.7134 23.6397 28.9242 22.8105 29.2475 22.0375C29.5707 21.2645 30.0064 20.5759 30.5405 19.9996C31.0746 19.4093 31.7211 18.9455 32.466 18.6223C33.2108 18.285 34.0682 18.1163 35.0239 18.1163C35.9093 18.1163 36.7526 18.2709 37.5396 18.5661C38.3267 18.8612 39.0435 19.2828 39.6478 19.8169C39.9851 20.1121 40.2943 20.4353 40.5473 20.8007C41.0533 21.5175 41.236 22.0235 41.236 22.0235C41.5171 22.6981 41.6576 23.4289 41.6576 24.216C41.6576 25.0311 41.503 25.8744 41.1938 26.7177C40.8987 27.5329 40.5192 28.334 40.0554 29.0929C39.6057 29.8518 39.1137 30.5686 38.5797 31.2432C38.0597 31.9179 37.5396 32.5222 37.0337 33.0703C36.2326 33.9277 35.6142 34.6585 35.1223 35.2347C34.799 35.6142 34.532 35.9375 34.279 36.2185C34.0963 36.4153 33.9838 36.598 33.8855 36.7667L33.8714 36.7807L37.7223 36.7948C38.2283 36.7948 38.7062 36.7807 39.1559 36.7667C39.5775 36.7526 39.9851 36.6964 40.3646 36.598C40.73 36.5137 41.0814 36.3591 41.4187 36.1623C41.756 35.9656 42.0652 35.6704 42.3744 35.291L42.5009 35.1364L43.3723 35.4877L43.3582 35.6423Z" fill="white"/>
<path d="M39.1981 37.8348C38.7343 37.8629 38.2424 37.8629 37.7224 37.8629H37.7083L32.6908 37.7083L32.3816 36.8651L32.5222 36.7386C32.8314 36.4715 33.3092 35.9796 33.9417 35.2769C34.5741 34.5882 35.5298 33.5482 36.851 32.1287C37.3288 31.6087 37.8207 31.0184 38.3407 30.3719C38.8467 29.7394 39.3105 29.0507 39.7322 28.334C40.1257 27.6734 40.2381 27.1815 40.4068 26.4507L40.4208 26.3804C40.5895 25.6355 40.5754 25.1857 40.5473 24.7219C40.5333 24.5533 40.5333 24.3706 40.5333 24.1879C40.5333 23.5554 40.4208 22.9651 40.21 22.4451C39.9992 21.9532 39.4932 21.2364 39.4932 21.2364C39.3105 21.0116 39.1137 20.8148 38.9029 20.6321C38.397 20.1823 37.7926 19.831 37.1321 19.592C36.4574 19.3391 35.7407 19.2126 34.9958 19.2126C34.2087 19.2126 33.4919 19.3531 32.9017 19.6202C32.2973 19.9012 31.7773 20.2807 31.3416 20.7445C30.8919 21.2224 30.5264 21.7986 30.2453 22.4592C30.2172 22.5294 30.1891 22.6138 30.161 22.684C30.3156 22.4873 30.4843 22.3046 30.6529 22.1359C31.0183 21.7564 31.44 21.4472 31.9038 21.1943C32.3957 20.9272 33.0422 20.7867 33.8011 20.7867C34.546 20.7867 35.2347 20.9272 35.8531 21.2083C36.4574 21.4894 36.9915 21.8689 37.4132 22.3327C37.8348 22.8105 38.158 23.3587 38.3829 23.9771C38.5937 24.5814 38.7062 25.2279 38.7062 25.9025C38.7062 26.8723 38.4813 27.8842 38.0316 28.8961C37.5959 29.88 36.9915 30.92 36.2185 32.0022C35.839 32.5503 35.3331 33.1406 34.7006 33.7731C34.5741 33.8996 34.4476 34.026 34.3071 34.1666L33.3373 35.1645C33.1546 35.3472 32.986 35.5299 32.7892 35.7126C32.1287 36.4013 31.454 37.1321 30.7794 37.9051C30.3437 38.4111 29.9221 38.9451 29.5286 39.5073H40.7722C40.8143 39.4651 40.8706 39.3808 40.9408 39.2543C41.1235 38.917 41.3203 38.5235 41.503 38.0597C41.6155 37.7645 41.7279 37.4553 41.8403 37.1602C41.4468 37.3851 41.0392 37.5397 40.6316 37.6381C40.1678 37.7505 39.69 37.8208 39.1981 37.8348Z" fill="white"/>
<path d="M40.6176 37.6381C40.1678 37.7505 39.69 37.8208 39.1981 37.8348C38.7343 37.8629 38.2424 37.8629 37.7224 37.8629H37.7083L32.6908 37.7083L32.3816 36.8651L32.5222 36.7386C32.8314 36.4715 33.3092 35.9796 33.9417 35.2769C34.5741 34.5882 35.5298 33.5482 36.851 32.1287C37.3288 31.6087 37.8207 31.0184 38.3407 30.3719C38.8467 29.7394 39.3105 29.0507 39.7322 28.334C40.1257 27.6734 40.2381 27.1815 40.4068 26.4507L40.4208 26.3804C40.5895 25.6355 40.5754 25.1857 40.5473 24.7219C40.5333 24.5533 40.5333 24.3706 40.5333 24.1879C40.5333 23.5554 40.4208 22.9651 40.21 22.4451C39.9992 21.9532 39.4932 21.2364 39.4932 21.2364C39.3105 21.0116 39.1137 20.8148 38.9029 20.6321C38.397 20.1823 37.7926 19.831 37.1321 19.592C36.4574 19.3391 35.7407 19.2126 34.9958 19.2126C34.2087 19.2126 33.4919 19.3531 32.9017 19.6202C32.2973 19.9012 31.7773 20.2807 31.3416 20.7445C30.8919 21.2224 30.5264 21.7986 30.2453 22.4592C30.2172 22.5294 30.1891 22.6138 30.161 22.684C30.3156 22.4873 30.4843 22.3046 30.6529 22.1359C31.0183 21.7564 31.44 21.4472 31.9038 21.1943C32.3957 20.9272 33.0422 20.7867 33.8011 20.7867C34.546 20.7867 35.2347 20.9272 35.8531 21.2083C36.4574 21.4894 36.9915 21.8689 37.4132 22.3327C37.8348 22.8105 38.158 23.3587 38.3829 23.9771C38.5937 24.5814 38.7062 25.2279 38.7062 25.9025C38.7062 26.8723 38.4813 27.8842 38.0316 28.8961C37.5959 29.88 36.9915 30.92 36.2185 32.0022C35.839 32.5503 35.3331 33.1406 34.7006 33.7731C34.5741 33.8996 34.4476 34.026 34.3071 34.1666L33.3373 35.1645C33.1546 35.3472 32.986 35.5299 32.7892 35.7126C32.1287 36.4013 31.454 37.1321 30.7794 37.9051C30.3437 38.4111 29.9221 38.9451 29.5286 39.5073H40.7722C40.8143 39.4651 40.8706 39.3808 40.9408 39.2543C41.1235 38.917 41.3203 38.5235 41.503 38.0597C41.6155 37.7645 41.7279 37.4553 41.8403 37.1602C41.4468 37.3851 41.0392 37.5397 40.6176 37.6381Z" fill="white"/>
<path d="M40.6176 37.6381C40.1678 37.7505 39.69 37.8208 39.1981 37.8348C38.7343 37.8629 38.2424 37.8629 37.7224 37.8629H37.7083L32.6908 37.7083L32.3816 36.8651L32.5222 36.7386C32.8314 36.4715 33.3092 35.9796 33.9417 35.2769C34.5741 34.5882 35.5298 33.5482 36.851 32.1287C37.3288 31.6087 37.8207 31.0184 38.3407 30.3719C38.8467 29.7394 39.3105 29.0507 39.7322 28.334C40.1257 27.6734 40.2381 27.1815 40.4068 26.4507L40.4208 26.3804C40.5895 25.6355 40.5754 25.1857 40.5473 24.7219C40.5333 24.5533 40.5333 24.3706 40.5333 24.1879C40.5333 23.5554 40.4208 22.9651 40.21 22.4451C39.9992 21.9532 39.4932 21.2364 39.4932 21.2364C39.3105 21.0116 39.1137 20.8148 38.9029 20.6321C38.397 20.1823 37.7926 19.831 37.1321 19.592C36.4574 19.3391 35.7407 19.2126 34.9958 19.2126C34.2087 19.2126 33.4919 19.3531 32.9017 19.6202C32.2973 19.9012 31.7773 20.2807 31.3416 20.7445C30.8919 21.2224 30.5264 21.7986 30.2453 22.4592C30.2172 22.5294 30.1891 22.6138 30.161 22.684C30.3156 22.4873 30.4843 22.3046 30.6529 22.1359C31.0183 21.7564 31.44 21.4472 31.9038 21.1943C32.3957 20.9272 33.0422 20.7867 33.8011 20.7867C34.546 20.7867 35.2347 20.9272 35.8531 21.2083C36.4574 21.4894 36.9915 21.8689 37.4132 22.3327C37.8348 22.8105 38.158 23.3587 38.3829 23.9771C38.5937 24.5814 38.7062 25.2279 38.7062 25.9025C38.7062 26.8723 38.4813 27.8842 38.0316 28.8961C37.5959 29.88 36.9915 30.92 36.2185 32.0022C35.839 32.5503 35.3331 33.1406 34.7006 33.7731C34.5741 33.8996 34.4476 34.026 34.3071 34.1666L33.3373 35.1645C33.1546 35.3472 32.986 35.5299 32.7892 35.7126C32.1287 36.4013 31.454 37.1321 30.7794 37.9051C30.3437 38.4111 29.9221 38.9451 29.5286 39.5073H40.7722C40.8143 39.4651 40.8706 39.3808 40.9408 39.2543C41.1235 38.917 41.3203 38.5235 41.503 38.0597C41.6155 37.7645 41.7279 37.4553 41.8403 37.1602C41.4468 37.3851 41.0392 37.5397 40.6176 37.6381Z" fill="white"/>
<path d="M40.6176 37.6381C40.1678 37.7505 39.69 37.8208 39.1981 37.8348C38.7343 37.8629 38.2424 37.8629 37.7224 37.8629H37.7083L32.6908 37.7083L32.3816 36.8651L32.5222 36.7386C32.8314 36.4715 33.3092 35.9796 33.9417 35.2769C34.5741 34.5882 35.5298 33.5482 36.851 32.1287C37.3288 31.6087 37.8207 31.0184 38.3407 30.3719C38.8467 29.7394 39.3105 29.0507 39.7322 28.334C40.1257 27.6734 40.2381 27.1815 40.4068 26.4507L40.4208 26.3804C40.5895 25.6355 40.5754 25.1857 40.5473 24.7219C40.5333 24.5533 40.5333 24.3706 40.5333 24.1879C40.5333 23.5554 40.4208 22.9651 40.21 22.4451C39.9992 21.9532 39.4932 21.2364 39.4932 21.2364C39.3105 21.0116 39.1137 20.8148 38.9029 20.6321C38.397 20.1823 37.7926 19.831 37.1321 19.592C36.4574 19.3391 35.7407 19.2126 34.9958 19.2126C34.2087 19.2126 33.4919 19.3531 32.9017 19.6202C32.2973 19.9012 31.7773 20.2807 31.3416 20.7445C30.8919 21.2224 30.5264 21.7986 30.2453 22.4592C30.2172 22.5294 30.1891 22.6138 30.161 22.684C30.3156 22.4873 30.4843 22.3046 30.6529 22.1359C31.0183 21.7564 31.44 21.4472 31.9038 21.1943C32.3957 20.9272 33.0422 20.7867 33.8011 20.7867C34.546 20.7867 35.2347 20.9272 35.8531 21.2083C36.4574 21.4894 36.9915 21.8689 37.4132 22.3327C37.8348 22.8105 38.158 23.3587 38.3829 23.9771C38.5937 24.5814 38.7062 25.2279 38.7062 25.9025C38.7062 26.8723 38.4813 27.8842 38.0316 28.8961C37.5959 29.88 36.9915 30.92 36.2185 32.0022C35.839 32.5503 35.3331 33.1406 34.7006 33.7731C34.5741 33.8996 34.4476 34.026 34.3071 34.1666L33.3373 35.1645C33.1546 35.3472 32.986 35.5299 32.7892 35.7126C32.1287 36.4013 31.454 37.1321 30.7794 37.9051C30.3437 38.4111 29.9221 38.9451 29.5286 39.5073H40.7722C40.8143 39.4651 40.8706 39.3808 40.9408 39.2543C41.1235 38.917 41.3203 38.5235 41.503 38.0597C41.6155 37.7645 41.7279 37.4553 41.8403 37.1602C41.4468 37.3851 41.0392 37.5397 40.6176 37.6381Z" fill="white"/>
<path d="M40.6176 37.6381C40.1678 37.7505 39.69 37.8208 39.1981 37.8348C38.7343 37.8629 38.2424 37.8629 37.7224 37.8629H37.7083L32.6908 37.7083L32.3816 36.8651L32.5222 36.7386C32.8314 36.4715 33.3092 35.9796 33.9417 35.2769C34.5741 34.5882 35.5298 33.5482 36.851 32.1287C37.3288 31.6087 37.8207 31.0184 38.3407 30.3719C38.8467 29.7394 39.3105 29.0507 39.7322 28.334C40.1257 27.6734 40.2381 27.1815 40.4068 26.4507L40.4208 26.3804C40.5895 25.6355 40.5754 25.1857 40.5473 24.7219C40.5333 24.5533 40.5333 24.3706 40.5333 24.1879C40.5333 23.5554 40.4208 22.9651 40.21 22.4451C39.9992 21.9532 39.4932 21.2364 39.4932 21.2364C39.3105 21.0116 39.1137 20.8148 38.9029 20.6321C38.397 20.1823 37.7926 19.831 37.1321 19.592C36.4574 19.3391 35.7407 19.2126 34.9958 19.2126C34.2087 19.2126 33.4919 19.3531 32.9017 19.6202C32.2973 19.9012 31.7773 20.2807 31.3416 20.7445C30.8919 21.2224 30.5264 21.7986 30.2453 22.4592C30.2172 22.5294 30.1891 22.6138 30.161 22.684C30.3156 22.4873 30.4843 22.3046 30.6529 22.1359C31.0183 21.7564 31.44 21.4472 31.9038 21.1943C32.3957 20.9272 33.0422 20.7867 33.8011 20.7867C34.546 20.7867 35.2347 20.9272 35.8531 21.2083C36.4574 21.4894 36.9915 21.8689 37.4132 22.3327C37.8348 22.8105 38.158 23.3587 38.3829 23.9771C38.5937 24.5814 38.7062 25.2279 38.7062 25.9025C38.7062 26.8723 38.4813 27.8842 38.0316 28.8961C37.5959 29.88 36.9915 30.92 36.2185 32.0022C35.839 32.5503 35.3331 33.1406 34.7006 33.7731C34.5741 33.8996 34.4476 34.026 34.3071 34.1666L33.3373 35.1645C33.1546 35.3472 32.986 35.5299 32.7892 35.7126C32.1287 36.4013 31.454 37.1321 30.7794 37.9051C30.3437 38.4111 29.9221 38.9451 29.5286 39.5073H40.7722C40.8143 39.4651 40.8706 39.3808 40.9408 39.2543C41.1235 38.917 41.3203 38.5235 41.503 38.0597C41.6155 37.7645 41.7279 37.4553 41.8403 37.1602C41.4468 37.3851 41.0392 37.5397 40.6176 37.6381Z" fill="white"/>
<path d="M40.6176 37.6381C40.1678 37.7505 39.69 37.8208 39.1981 37.8348C38.7343 37.8629 38.2424 37.8629 37.7224 37.8629H37.7083L32.6908 37.7083L32.3816 36.8651L32.5222 36.7386C32.8314 36.4715 33.3092 35.9796 33.9417 35.2769C34.5741 34.5882 35.5298 33.5482 36.851 32.1287C37.3288 31.6087 37.8207 31.0184 38.3407 30.3719C38.8467 29.7394 39.3105 29.0507 39.7322 28.334C40.1257 27.6734 40.2381 27.1815 40.4068 26.4507L40.4208 26.3804C40.5895 25.6355 40.5754 25.1857 40.5473 24.7219C40.5333 24.5533 40.5333 24.3706 40.5333 24.1879C40.5333 23.5554 40.4208 22.9651 40.21 22.4451C39.9992 21.9532 39.4932 21.2364 39.4932 21.2364C39.3105 21.0116 39.1137 20.8148 38.9029 20.6321C38.397 20.1823 37.7926 19.831 37.1321 19.592C36.4574 19.3391 35.7407 19.2126 34.9958 19.2126C34.2087 19.2126 33.4919 19.3531 32.9017 19.6202C32.2973 19.9012 31.7773 20.2807 31.3416 20.7445C30.8919 21.2224 30.5264 21.7986 30.2453 22.4592C30.2172 22.5294 30.1891 22.6138 30.161 22.684C30.3156 22.4873 30.4843 22.3046 30.6529 22.1359C31.0183 21.7564 31.44 21.4472 31.9038 21.1943C32.3957 20.9272 33.0422 20.7867 33.8011 20.7867C34.546 20.7867 35.2347 20.9272 35.8531 21.2083C36.4574 21.4894 36.9915 21.8689 37.4132 22.3327C37.8348 22.8105 38.158 23.3587 38.3829 23.9771C38.5937 24.5814 38.7062 25.2279 38.7062 25.9025C38.7062 26.8723 38.4813 27.8842 38.0316 28.8961C37.5959 29.88 36.9915 30.92 36.2185 32.0022C35.839 32.5503 35.3331 33.1406 34.7006 33.7731C34.5741 33.8996 34.4476 34.026 34.3071 34.1666L33.3373 35.1645C33.1546 35.3472 32.986 35.5299 32.7892 35.7126C32.1287 36.4013 31.454 37.1321 30.7794 37.9051C30.3437 38.4111 29.9221 38.9451 29.5286 39.5073H40.7722C40.8143 39.4651 40.8706 39.3808 40.9408 39.2543C41.1235 38.917 41.3203 38.5235 41.503 38.0597C41.6155 37.7645 41.7279 37.4553 41.8403 37.1602C41.4468 37.3851 41.0392 37.5397 40.6176 37.6381Z" fill="white"/>
<path d="M40.6176 37.6381C40.1678 37.7505 39.69 37.8208 39.1981 37.8348C38.7343 37.8629 38.2424 37.8629 37.7224 37.8629H37.7083L32.6908 37.7083L32.3816 36.8651L32.5222 36.7386C32.8314 36.4715 33.3092 35.9796 33.9417 35.2769C34.5741 34.5882 35.5298 33.5482 36.851 32.1287C37.3288 31.6087 37.8207 31.0184 38.3407 30.3719C38.8467 29.7394 39.3105 29.0507 39.7322 28.334C40.1257 27.6734 40.2381 27.1815 40.4068 26.4507L40.4208 26.3804C40.5895 25.6355 40.5754 25.1857 40.5473 24.7219C40.5333 24.5533 40.5333 24.3706 40.5333 24.1879C40.5333 23.5554 40.4208 22.9651 40.21 22.4451C39.9992 21.9532 39.4932 21.2364 39.4932 21.2364C39.3105 21.0116 39.1137 20.8148 38.9029 20.6321C38.397 20.1823 37.7926 19.831 37.1321 19.592C36.4574 19.3391 35.7407 19.2126 34.9958 19.2126C34.2087 19.2126 33.4919 19.3531 32.9017 19.6202C32.2973 19.9012 31.7773 20.2807 31.3416 20.7445C30.8919 21.2224 30.5264 21.7986 30.2453 22.4592C30.2172 22.5294 30.1891 22.6138 30.161 22.684C30.3156 22.4873 30.4843 22.3046 30.6529 22.1359C31.0183 21.7564 31.44 21.4472 31.9038 21.1943C32.3957 20.9272 33.0422 20.7867 33.8011 20.7867C34.546 20.7867 35.2347 20.9272 35.8531 21.2083C36.4574 21.4894 36.9915 21.8689 37.4132 22.3327C37.8348 22.8105 38.158 23.3587 38.3829 23.9771C38.5937 24.5814 38.7062 25.2279 38.7062 25.9025C38.7062 26.8723 38.4813 27.8842 38.0316 28.8961C37.5959 29.88 36.9915 30.92 36.2185 32.0022C35.839 32.5503 35.3331 33.1406 34.7006 33.7731C34.5741 33.8996 34.4476 34.026 34.3071 34.1666L33.3373 35.1645C33.1546 35.3472 32.986 35.5299 32.7892 35.7126C32.1287 36.4013 31.454 37.1321 30.7794 37.9051C30.3437 38.4111 29.9221 38.9451 29.5286 39.5073H40.7722C40.8143 39.4651 40.8706 39.3808 40.9408 39.2543C41.1235 38.917 41.3203 38.5235 41.503 38.0597C41.6155 37.7645 41.7279 37.4553 41.8403 37.1602C41.4468 37.3851 41.0392 37.5397 40.6176 37.6381Z" fill="white"/>
<path d="M40.6176 37.6381C40.1678 37.7505 39.69 37.8208 39.1981 37.8348C38.7343 37.8629 38.2424 37.8629 37.7224 37.8629H37.7083L32.6908 37.7083L32.3816 36.8651L32.5222 36.7386C32.8314 36.4715 33.3092 35.9796 33.9417 35.2769C34.5741 34.5882 35.5298 33.5482 36.851 32.1287C37.3288 31.6087 37.8207 31.0184 38.3407 30.3719C38.8467 29.7394 39.3105 29.0507 39.7322 28.334C40.1257 27.6734 40.2381 27.1815 40.4068 26.4507L40.4208 26.3804C40.5895 25.6355 40.5754 25.1857 40.5473 24.7219C40.5333 24.5533 40.5333 24.3706 40.5333 24.1879C40.5333 23.5554 40.4208 22.9651 40.21 22.4451C39.9992 21.9532 39.4932 21.2364 39.4932 21.2364C39.3105 21.0116 39.1137 20.8148 38.9029 20.6321C38.397 20.1823 37.7926 19.831 37.1321 19.592C36.4574 19.3391 35.7407 19.2126 34.9958 19.2126C34.2087 19.2126 33.4919 19.3531 32.9017 19.6202C32.2973 19.9012 31.7773 20.2807 31.3416 20.7445C30.8919 21.2224 30.5264 21.7986 30.2453 22.4592C30.2172 22.5294 30.1891 22.6138 30.161 22.684C30.3156 22.4873 30.4843 22.3046 30.6529 22.1359C31.0183 21.7564 31.44 21.4472 31.9038 21.1943C32.3957 20.9272 33.0422 20.7867 33.8011 20.7867C34.546 20.7867 35.2347 20.9272 35.8531 21.2083C36.4574 21.4894 36.9915 21.8689 37.4132 22.3327C37.8348 22.8105 38.158 23.3587 38.3829 23.9771C38.5937 24.5814 38.7062 25.2279 38.7062 25.9025C38.7062 26.8723 38.4813 27.8842 38.0316 28.8961C37.5959 29.88 36.9915 30.92 36.2185 32.0022C35.839 32.5503 35.3331 33.1406 34.7006 33.7731C34.5741 33.8996 34.4476 34.026 34.3071 34.1666L33.3373 35.1645C33.1546 35.3472 32.986 35.5299 32.7892 35.7126C32.1287 36.4013 31.454 37.1321 30.7794 37.9051C30.3437 38.4111 29.9221 38.9451 29.5286 39.5073H40.7722C40.8143 39.4651 40.8706 39.3808 40.9408 39.2543C41.1235 38.917 41.3203 38.5235 41.503 38.0597C41.6155 37.7645 41.7279 37.4553 41.8403 37.1602C41.4468 37.3851 41.0392 37.5397 40.6176 37.6381Z" fill="#6D5C41"/>
<path d="M56.5018 33.3857C56.9801 33.037 57.502 32.7972 58.0673 32.6229C58.6326 32.4703 59.1544 32.2306 59.6328 31.8819C60.1111 31.555 60.5025 31.0538 60.8069 30.4218C61.1113 29.768 61.2852 28.8091 61.2852 27.5232V6.14388C61.2852 4.79269 61.1113 3.79019 60.7851 3.13639C60.459 2.48259 60.0459 2.02492 59.5893 1.71981C59.1109 1.41471 58.6109 1.19677 58.0455 1.06601C57.4802 0.913458 56.9801 0.651937 56.5018 0.281448H71.7435C71.2652 0.651937 70.7216 0.935251 70.0911 1.08781C69.4605 1.24036 68.8517 1.50188 68.2647 1.85058C67.6776 2.19927 67.1993 2.72231 66.8079 3.4415C66.4165 4.16068 66.2208 5.25035 66.2208 6.7323V27.5232C66.2208 28.8526 66.3513 29.768 66.5905 30.2692C66.7862 30.6179 67.0471 30.8576 67.395 30.9884C67.8733 31.2063 69.1779 31.3153 71.3087 31.3153H72.3958C74.3744 31.3153 75.9834 31.1627 77.201 30.8576C78.4186 30.5525 79.4187 30.182 80.158 29.7462C80.8973 29.3103 81.4408 28.809 81.7887 28.2642C82.1366 27.7194 82.3975 27.1745 82.5932 26.6515C82.7889 26.1285 82.9628 25.6708 83.115 25.2567C83.2672 24.8426 83.5281 24.5593 83.876 24.4068C83.789 25.0388 83.6803 25.8669 83.5716 26.8694C83.4629 27.8719 83.3107 28.8744 83.0933 29.8551C82.8976 30.8358 82.6367 31.664 82.3105 32.3614C82.0061 33.0588 81.5713 33.4075 81.0277 33.4075H56.5018V33.3857Z" fill="#6D5C41"/>
<path d="M80.0058 0.281448H92.0948C91.7469 0.564763 91.399 0.826284 91.0511 1.04422C90.7032 1.26215 90.3988 1.48009 90.1162 1.67623C89.8335 1.87237 89.5944 2.1121 89.4422 2.33003C89.2682 2.56976 89.1812 2.85307 89.1812 3.20177C89.1812 3.55046 89.2682 3.98633 89.4422 4.53117C89.6161 5.076 89.8988 5.72981 90.3119 6.51437L95.3127 16.1253L99.1395 6.95024C99.4439 6.18747 99.7483 5.46829 100.009 4.7491C100.27 4.02992 100.401 3.4415 100.401 2.91845C100.401 2.54797 100.314 2.24286 100.14 2.04672C99.9657 1.85058 99.7483 1.65443 99.4873 1.48009C99.2264 1.30574 98.922 1.13139 98.5959 0.957045C98.2697 0.782697 97.9436 0.564763 97.6392 0.281448H107.228C106.749 0.651937 106.336 0.913458 105.967 1.04422C105.597 1.17498 105.227 1.39291 104.814 1.71981C104.401 2.04672 103.945 2.56976 103.445 3.31074C102.944 4.02992 102.336 5.18497 101.596 6.7541L96.5086 19.3289V27.654C96.5086 29.6808 96.726 30.9884 97.1609 31.6204C97.3131 31.8383 97.5087 32.0127 97.7479 32.1652C97.9871 32.3178 98.2263 32.4268 98.5089 32.5139C98.7698 32.6011 99.0525 32.7101 99.3351 32.8408C99.6178 32.9716 99.8787 33.1459 100.14 33.3639H88.1158C88.3985 33.1459 88.7029 32.9498 89.0073 32.7755C89.3117 32.6011 89.6378 32.4268 89.9422 32.2742C90.2466 32.1217 90.5293 31.9691 90.7685 31.8165C91.0076 31.664 91.1598 31.5114 91.2685 31.3153C91.6164 30.7269 91.7904 29.4846 91.7904 27.6322V19.7866L84.6152 5.94774C84.2456 5.16318 83.9195 4.53117 83.6586 4.02992C83.3976 3.55046 83.0932 3.11459 82.7889 2.72231C82.4845 2.35182 82.1148 1.95954 81.68 1.58905C81.2451 1.21857 80.6798 0.782697 80.0058 0.281448Z" fill="#6D5C41"/>
<path d="M109.728 33.3422C110.641 32.9717 111.359 32.6448 111.903 32.3833C112.446 32.1217 112.837 31.7948 113.098 31.4461C113.359 31.0756 113.533 30.618 113.62 30.0296C113.707 29.4411 113.729 28.6566 113.729 27.6977V4.53125C113.251 3.87744 112.859 3.33261 112.555 2.91853C112.25 2.50446 111.946 2.15576 111.685 1.87245C111.424 1.58913 111.142 1.32761 110.881 1.08789C110.62 0.848158 110.272 0.586637 109.859 0.259735H116.751L135.298 25.6491V6.0132C135.298 3.98641 135.059 2.67881 134.58 2.09038C134.385 1.82886 134.167 1.65451 133.928 1.52375C133.667 1.39299 133.406 1.28403 133.124 1.19685C132.841 1.10968 132.536 1.00071 132.232 0.869951C131.928 0.739191 131.602 0.564843 131.297 0.346909H141.734C140.82 0.717397 140.103 1.0443 139.559 1.30582C139.016 1.56734 138.624 1.89424 138.364 2.24294C138.103 2.61343 137.929 3.07109 137.842 3.63772C137.755 4.20435 137.733 4.98891 137.733 6.0132V28.8963C138.211 29.5501 138.603 30.1167 138.929 30.5526C139.255 30.9885 139.559 31.3808 139.82 31.6859C140.081 31.991 140.364 32.2743 140.625 32.5358C140.886 32.7973 141.212 33.0589 141.581 33.3422H134.689L116.055 7.80026V27.6541C116.055 29.6809 116.295 30.9885 116.773 31.5769C116.969 31.7948 117.186 31.9692 117.425 32.1217C117.686 32.2743 117.947 32.3833 118.23 32.4704C118.512 32.5576 118.817 32.6666 119.121 32.7973C119.426 32.9281 119.752 33.1024 120.056 33.3204H109.728V33.3422Z" fill="#6D5C41"/>
<path d="M144.169 0.281529H155.54C154.975 0.760984 154.366 1.17506 153.692 1.54555C153.04 1.91604 152.605 2.3737 152.409 2.94033C152.257 3.50696 152.17 4.57484 152.17 6.16576V16.2779C152.322 16.0818 152.692 15.6677 153.257 14.9921C153.823 14.3383 154.475 13.5319 155.236 12.5948C155.997 11.6577 156.78 10.677 157.628 9.60912C158.454 8.56303 159.215 7.53874 159.911 6.57983C160.606 5.62092 161.172 4.77098 161.607 4.05179C162.041 3.33261 162.259 2.83136 162.215 2.59163C162.215 2.24294 162.128 1.95962 161.976 1.76348C161.824 1.56734 161.607 1.39299 161.367 1.24044C161.106 1.08789 160.846 0.957125 160.541 0.804571C160.237 0.652017 159.976 0.477669 159.715 0.259735H170.934C170.586 0.521256 170.282 0.695604 169.999 0.826364C169.717 0.957125 169.521 1.0443 169.391 1.10968C168.847 1.26223 168.216 1.67631 167.455 2.30832C166.694 2.96212 165.89 3.72489 165.042 4.61842C164.194 5.51195 163.346 6.49266 162.476 7.51695C161.607 8.56303 160.802 9.56553 160.019 10.5462C159.258 11.5269 158.563 12.3987 157.997 13.205C157.41 13.9896 156.975 14.5998 156.649 14.9921L166.129 27.1092C167.173 28.3297 168.325 29.5283 169.564 30.7052C170.826 31.882 172.304 32.7537 174 33.364H160.215C160.367 33.1678 160.585 32.9935 160.846 32.8191C161.106 32.6448 161.367 32.4486 161.607 32.2525C161.846 32.0564 162.041 31.8166 162.215 31.5987C162.389 31.359 162.476 31.0974 162.476 30.8141C162.476 30.6616 162.455 30.509 162.433 30.3565C162.411 30.2039 162.368 30.1167 162.346 30.0514C162.259 29.7898 162.085 29.5283 161.846 29.245C161.607 28.9617 161.324 28.5912 160.976 28.1553L152.148 16.8445V27.5233C152.148 28.3733 152.17 29.0925 152.214 29.6591C152.257 30.2257 152.366 30.7052 152.518 31.0757C152.649 31.3808 152.779 31.6423 152.953 31.8602C153.105 32.0564 153.301 32.2525 153.518 32.4051C153.736 32.5576 153.975 32.7102 154.192 32.8627C154.431 33.0153 154.692 33.1896 154.975 33.4076H144.169C144.538 33.1024 144.93 32.8409 145.299 32.6666C145.669 32.4922 146.039 32.2307 146.365 31.9038C146.691 31.5769 146.952 31.0757 147.169 30.4436C147.365 29.7898 147.474 28.8309 147.474 27.5451V6.14396C147.474 4.50946 147.387 3.39799 147.235 2.83136C147.104 2.46087 146.952 2.15576 146.734 1.91604C146.539 1.67631 146.278 1.48017 145.995 1.30582C145.713 1.13147 145.408 0.978918 145.104 0.826364C144.843 0.67381 144.517 0.499463 144.169 0.281529Z" fill="#6D5C41"/>
<path d="M57.9894 47.4184C57.6428 47.4184 57.3367 47.3599 57.0711 47.2428C56.8055 47.1213 56.5962 46.9502 56.4431 46.7297C56.2901 46.5046 56.2113 46.2322 56.2068 45.9126H57.1184C57.1274 46.1332 57.2061 46.32 57.3547 46.4731C57.5077 46.6216 57.7171 46.6959 57.9827 46.6959C58.2122 46.6959 58.3946 46.6419 58.5296 46.5338C58.6646 46.4213 58.7322 46.2727 58.7322 46.0882C58.7322 45.8946 58.6714 45.7438 58.5499 45.6358C58.4328 45.5277 58.2753 45.4399 58.0772 45.3724C57.8791 45.3049 57.6675 45.2329 57.4425 45.1564C57.0778 45.0303 56.7987 44.8682 56.6052 44.6702C56.4161 44.4721 56.3216 44.2088 56.3216 43.8802C56.3171 43.6011 56.3823 43.3625 56.5174 43.1644C56.6569 42.9618 56.846 42.8065 57.0846 42.6985C57.3232 42.5859 57.5978 42.5297 57.9084 42.5297C58.2235 42.5297 58.5003 42.5859 58.7389 42.6985C58.982 42.811 59.1711 42.9686 59.3061 43.1712C59.4457 43.3737 59.5199 43.6146 59.529 43.8937H58.6039C58.5994 43.7271 58.5341 43.5808 58.4081 43.4548C58.2865 43.3242 58.1155 43.2589 57.8949 43.2589C57.7058 43.2544 57.546 43.3017 57.4155 43.4007C57.2894 43.4953 57.2264 43.6348 57.2264 43.8194C57.2264 43.9769 57.2759 44.103 57.3749 44.1975C57.474 44.2875 57.609 44.3641 57.7801 44.4271C57.9511 44.4901 58.147 44.5576 58.3675 44.6297C58.6016 44.7107 58.8155 44.8052 59.009 44.9133C59.2026 45.0213 59.3579 45.1654 59.4749 45.3454C59.592 45.521 59.6505 45.7483 59.6505 46.0274C59.6505 46.275 59.5875 46.5046 59.4614 46.7161C59.3354 46.9277 59.1486 47.0988 58.901 47.2293C58.6534 47.3554 58.3495 47.4184 57.9894 47.4184Z" fill="#6D5C41"/>
<path d="M64.0374 47.4184C63.5647 47.4184 63.1506 47.3149 62.7949 47.1078C62.4438 46.9007 62.167 46.6149 61.9644 46.2502C61.7663 45.8811 61.6673 45.4557 61.6673 44.974C61.6673 44.4924 61.7663 44.0692 61.9644 43.7046C62.167 43.3355 62.4438 43.0474 62.7949 42.8403C63.1506 42.6332 63.5647 42.5297 64.0374 42.5297C64.5055 42.5297 64.9174 42.6332 65.2731 42.8403C65.6287 43.0474 65.9055 43.3355 66.1036 43.7046C66.3017 44.0692 66.4007 44.4924 66.4007 44.974C66.4007 45.4557 66.3017 45.8811 66.1036 46.2502C65.9055 46.6149 65.6287 46.9007 65.2731 47.1078C64.9174 47.3149 64.5055 47.4184 64.0374 47.4184ZM64.0374 46.6419C64.4875 46.6419 64.8454 46.4933 65.111 46.1962C65.3811 45.8991 65.5161 45.4917 65.5161 44.974C65.5161 44.4564 65.3811 44.049 65.111 43.7519C64.8454 43.4548 64.4875 43.3062 64.0374 43.3062C63.5872 43.3062 63.2271 43.4548 62.957 43.7519C62.6869 44.049 62.5519 44.4564 62.5519 44.974C62.5519 45.4917 62.6869 45.8991 62.957 46.1962C63.2271 46.4933 63.5872 46.6419 64.0374 46.6419Z" fill="#6D5C41"/>
<path d="M70.7223 47.4184C70.2452 47.4184 69.8355 47.3171 69.4934 47.1145C69.1513 46.9075 68.8879 46.6216 68.7034 46.257C68.5188 45.8879 68.4265 45.4625 68.4265 44.9808C68.4265 44.4991 68.5188 44.0737 68.7034 43.7046C68.8879 43.3355 69.1513 43.0474 69.4934 42.8403C69.8355 42.6332 70.2452 42.5297 70.7223 42.5297C71.2895 42.5297 71.7532 42.6715 72.1133 42.9551C72.4779 43.2342 72.7053 43.6281 72.7953 44.1367H71.8432C71.7847 43.8802 71.6587 43.6798 71.4651 43.5358C71.276 43.3872 71.0239 43.313 70.7088 43.313C70.2722 43.313 69.93 43.4615 69.6825 43.7586C69.4349 44.0557 69.3111 44.4631 69.3111 44.9808C69.3111 45.4985 69.4349 45.9059 69.6825 46.203C69.93 46.4956 70.2722 46.6419 70.7088 46.6419C71.0239 46.6419 71.276 46.5743 71.4651 46.4393C71.6587 46.2998 71.7847 46.1084 71.8432 45.8653H72.7953C72.7053 46.3515 72.4779 46.7319 72.1133 47.0065C71.7532 47.2811 71.2895 47.4184 70.7223 47.4184Z" fill="#6D5C41"/>
<path d="M74.9784 47.3374V42.6107H75.8427V47.3374H74.9784Z" fill="#6D5C41"/>
<path d="M77.8729 47.3374L79.6015 42.6107H80.5739L82.3025 47.3374H81.3842L81.006 46.2435H79.1626L78.7777 47.3374H77.8729ZM79.399 45.5682H80.7697L80.0809 43.6033L79.399 45.5682Z" fill="#6D5C41"/>
<path d="M84.3293 47.3374V42.6107H85.1937V46.6621H87.2869V47.3374H84.3293Z" fill="#6D5C41"/>
<path d="M92.4934 47.3374V42.6107H94.3908C94.8815 42.6107 95.2551 42.7255 95.5117 42.9551C95.7728 43.1802 95.9033 43.4705 95.9033 43.8261C95.9033 44.1232 95.8223 44.3618 95.6602 44.5419C95.5027 44.7174 95.3091 44.8367 95.0795 44.8998C95.3496 44.9538 95.5725 45.0888 95.748 45.3049C95.9236 45.5165 96.0114 45.7641 96.0114 46.0477C96.0114 46.4213 95.8763 46.7297 95.6062 46.9727C95.3361 47.2158 94.9535 47.3374 94.4583 47.3374H92.4934ZM93.3577 44.5959H94.2625C94.5056 44.5959 94.6924 44.5396 94.823 44.4271C94.9535 44.3146 95.0188 44.1547 95.0188 43.9477C95.0188 43.7496 94.9535 43.5943 94.823 43.4818C94.6969 43.3647 94.5056 43.3062 94.249 43.3062H93.3577V44.5959ZM93.3577 46.6351H94.3233C94.5799 46.6351 94.7779 46.5766 94.9175 46.4596C95.0615 46.338 95.1336 46.1692 95.1336 45.9531C95.1336 45.7326 95.0593 45.5592 94.9107 45.4332C94.7622 45.3072 94.5619 45.2441 94.3098 45.2441H93.3577V46.6351Z" fill="#6D5C41"/>
<path d="M99.9943 47.4184C99.6477 47.4184 99.3348 47.3509 99.0557 47.2158C98.7766 47.0763 98.5538 46.867 98.3872 46.5879C98.2252 46.3088 98.1442 45.9554 98.1442 45.5277V42.6107H99.0085V45.5345C99.0085 45.9036 99.0962 46.1782 99.2718 46.3583C99.4519 46.5383 99.6995 46.6284 100.015 46.6284C100.325 46.6284 100.571 46.5383 100.751 46.3583C100.931 46.1782 101.021 45.9036 101.021 45.5345V42.6107H101.885V45.5277C101.885 45.9554 101.799 46.3088 101.628 46.5879C101.457 46.867 101.228 47.0763 100.94 47.2158C100.656 47.3509 100.341 47.4184 99.9943 47.4184Z" fill="#6D5C41"/>
<path d="M105.407 47.3374V45.656L103.821 42.6107H104.8L105.846 44.7917L106.886 42.6107H107.852L106.272 45.656V47.3374H105.407Z" fill="#6D5C41"/>
<path d="M109.823 47.3374V42.6107H110.688V47.3374H109.823Z" fill="#6D5C41"/>
<path d="M113.022 47.3374V42.6107H113.886L116.108 45.9396V42.6107H116.972V47.3374H116.108L113.886 44.0152V47.3374H113.022Z" fill="#6D5C41"/>
<path d="M121.373 47.4184C120.927 47.4184 120.538 47.3171 120.204 47.1145C119.871 46.912 119.612 46.6306 119.428 46.2705C119.243 45.9059 119.151 45.4827 119.151 45.001C119.151 44.5149 119.246 44.0872 119.435 43.7181C119.628 43.3445 119.901 43.0541 120.252 42.847C120.607 42.6355 121.028 42.5297 121.514 42.5297C122.068 42.5297 122.527 42.6625 122.892 42.9281C123.256 43.1937 123.493 43.5605 123.601 44.0287H122.635C122.563 43.8081 122.433 43.6371 122.244 43.5155C122.055 43.3895 121.811 43.3265 121.514 43.3265C121.042 43.3265 120.677 43.4773 120.421 43.7789C120.164 44.076 120.036 44.4856 120.036 45.0078C120.036 45.53 120.162 45.9351 120.414 46.2232C120.67 46.5068 121.017 46.6486 121.454 46.6486C121.881 46.6486 122.203 46.5338 122.419 46.3043C122.64 46.0702 122.773 45.7641 122.818 45.3859H121.622V44.7377H123.689V47.3374H122.892L122.824 46.7161C122.671 46.9412 122.48 47.1145 122.25 47.2361C122.021 47.3576 121.728 47.4184 121.373 47.4184Z" fill="#6D5C41"/>
<path d="M130.486 47.4116C130.14 47.4116 129.838 47.3531 129.582 47.2361C129.325 47.1145 129.125 46.9457 128.981 46.7297C128.841 46.5136 128.771 46.2615 128.771 45.9734C128.771 45.6673 128.857 45.3904 129.028 45.1428C129.199 44.8953 129.453 44.6972 129.791 44.5486C129.656 44.3911 129.559 44.2425 129.501 44.103C129.442 43.9634 129.413 43.8149 129.413 43.6573C129.413 43.4412 129.467 43.2499 129.575 43.0834C129.683 42.9123 129.836 42.7773 130.034 42.6782C130.237 42.5792 130.477 42.5297 130.756 42.5297C131.04 42.5297 131.281 42.5814 131.479 42.685C131.677 42.7885 131.826 42.9281 131.925 43.1036C132.028 43.2792 132.075 43.475 132.066 43.6911H131.243C131.243 43.5245 131.193 43.4007 131.094 43.3197C131 43.2342 130.885 43.1914 130.75 43.1914C130.597 43.1914 130.473 43.2342 130.378 43.3197C130.288 43.4052 130.243 43.5155 130.243 43.6506C130.243 43.7631 130.279 43.8779 130.351 43.9949C130.423 44.112 130.529 44.247 130.669 44.4001L131.992 45.71C132.087 45.557 132.186 45.3792 132.289 45.1766L132.438 44.8795H133.322L133.086 45.3387C132.906 45.7033 132.726 46.0117 132.546 46.2637L133.633 47.3374H132.6L132.073 46.8107C131.844 47.0223 131.598 47.1753 131.337 47.2698C131.081 47.3644 130.797 47.4116 130.486 47.4116ZM129.609 45.9194C129.609 46.1399 129.69 46.3268 129.852 46.4798C130.018 46.6284 130.239 46.7026 130.513 46.7026C130.905 46.7026 131.245 46.5631 131.533 46.284L130.284 45.0483C130.054 45.1473 129.883 45.2711 129.771 45.4197C129.663 45.5682 129.609 45.7348 129.609 45.9194Z" fill="#6D5C41"/>
<path d="M140.249 47.4184C139.902 47.4184 139.596 47.3599 139.33 47.2428C139.065 47.1213 138.855 46.9502 138.702 46.7297C138.549 46.5046 138.47 46.2322 138.466 45.9126H139.378C139.387 46.1332 139.465 46.32 139.614 46.4731C139.767 46.6216 139.976 46.6959 140.242 46.6959C140.471 46.6959 140.654 46.6419 140.789 46.5338C140.924 46.4213 140.991 46.2727 140.991 46.0882C140.991 45.8946 140.931 45.7438 140.809 45.6358C140.692 45.5277 140.534 45.4399 140.336 45.3724C140.138 45.3049 139.927 45.2329 139.702 45.1564C139.337 45.0303 139.058 44.8682 138.864 44.6702C138.675 44.4721 138.581 44.2088 138.581 43.8802C138.576 43.6011 138.642 43.3625 138.777 43.1644C138.916 42.9618 139.105 42.8065 139.344 42.6985C139.582 42.5859 139.857 42.5297 140.168 42.5297C140.483 42.5297 140.759 42.5859 140.998 42.6985C141.241 42.811 141.43 42.9686 141.565 43.1712C141.705 43.3737 141.779 43.6146 141.788 43.8937H140.863C140.859 43.7271 140.793 43.5808 140.667 43.4548C140.546 43.3242 140.375 43.2589 140.154 43.2589C139.965 43.2544 139.805 43.3017 139.675 43.4007C139.549 43.4953 139.486 43.6348 139.486 43.8194C139.486 43.9769 139.535 44.103 139.634 44.1975C139.733 44.2875 139.868 44.3641 140.039 44.4271C140.21 44.4901 140.406 44.5576 140.627 44.6297C140.861 44.7107 141.075 44.8052 141.268 44.9133C141.462 45.0213 141.617 45.1654 141.734 45.3454C141.851 45.521 141.91 45.7483 141.91 46.0274C141.91 46.275 141.847 46.5046 141.721 46.7161C141.595 46.9277 141.408 47.0988 141.16 47.2293C140.913 47.3554 140.609 47.4184 140.249 47.4184Z" fill="#6D5C41"/>
<path d="M144.082 47.3374V42.6107H147.168V43.3062H144.946V44.6027H146.965V45.2779H144.946V46.6419H147.168V47.3374H144.082Z" fill="#6D5C41"/>
<path d="M149.403 47.3374V42.6107H150.268V46.6621H152.361V47.3374H149.403Z" fill="#6D5C41"/>
<path d="M154.541 47.3374V42.6107H155.405V46.6621H157.498V47.3374H154.541Z" fill="#6D5C41"/>
<path d="M159.678 47.3374V42.6107H160.542V47.3374H159.678Z" fill="#6D5C41"/>
<path d="M162.876 47.3374V42.6107H163.74L165.962 45.9396V42.6107H166.826V47.3374H165.962L163.74 44.0152V47.3374H162.876Z" fill="#6D5C41"/>
<path d="M171.227 47.4184C170.781 47.4184 170.392 47.3171 170.059 47.1145C169.725 46.912 169.467 46.6306 169.282 46.2705C169.097 45.9059 169.005 45.4827 169.005 45.001C169.005 44.5149 169.1 44.0872 169.289 43.7181C169.482 43.3445 169.755 43.0541 170.106 42.847C170.461 42.6355 170.882 42.5297 171.368 42.5297C171.922 42.5297 172.381 42.6625 172.746 42.9281C173.111 43.1937 173.347 43.5605 173.455 44.0287H172.489C172.417 43.8081 172.287 43.6371 172.098 43.5155C171.909 43.3895 171.666 43.3265 171.368 43.3265C170.896 43.3265 170.531 43.4773 170.275 43.7789C170.018 44.076 169.89 44.4856 169.89 45.0078C169.89 45.53 170.016 45.9351 170.268 46.2232C170.524 46.5068 170.871 46.6486 171.308 46.6486C171.735 46.6486 172.057 46.5338 172.273 46.3043C172.494 46.0702 172.627 45.7641 172.672 45.3859H171.477V44.7377H173.543V47.3374H172.746L172.678 46.7161C172.525 46.9412 172.334 47.1145 172.104 47.2361C171.875 47.3576 171.582 47.4184 171.227 47.4184Z" fill="#6D5C41"/>
</svg>
