<svg width="166" height="166" viewBox="0 0 166 166" fill="none" xmlns="http://www.w3.org/2000/svg">
<g filter="url(#filter0_d_4_253)">
<path d="M86 63C86 50.2975 75.7025 40 63 40C50.2975 40 40 50.2975 40 63C40 75.7025 50.2975 86 63 86C75.7025 86 86 75.7025 86 63Z" fill="white"/>
</g>
<path d="M58.6873 69.7767C58.6873 68.4177 57.5821 67.3125 56.2231 67.3125C54.864 67.3125 53.7588 68.4177 53.7588 69.7767V71.0089C53.7588 71.6881 53.1648 72.2821 52.4856 72.2821V73.5142H54.9909C57.0292 73.5142 58.6873 71.815 58.6873 69.7767Z" fill="#FF9344" fill-opacity="0.35"/>
<path d="M62.7968 57.6448C62.468 57.7332 62.2726 58.0699 62.3612 58.3992C62.4461 58.7161 62.7712 58.9245 63.1157 58.8348C63.4467 58.7458 63.6389 58.4074 63.5512 58.0804C63.4623 57.7499 63.122 57.5571 62.7968 57.6448Z" fill="#FF9344" fill-opacity="0.35"/>
<path d="M59.3118 62.3199C59.6387 62.4066 59.977 62.2164 60.0662 61.8844C60.1552 61.5524 59.9572 61.2175 59.6312 61.1299H59.6306C59.4559 61.0828 59.4086 61.1182 59.2851 61.1586C59.292 61.5299 59.2969 61.9151 59.2995 62.3139C59.304 62.3152 59.3072 62.3187 59.3118 62.3199Z" fill="#FF9344" fill-opacity="0.35"/>
<path d="M66.1023 67.6008C66.0132 67.2695 65.6732 67.078 65.3479 67.1658C65.0134 67.2557 64.8253 67.597 64.9123 67.9202C65.0001 68.2481 65.3346 68.4419 65.6667 68.3558C65.9955 68.2674 66.1909 67.9307 66.1023 67.6014V67.6008Z" fill="#FF9344" fill-opacity="0.35"/>
<path d="M68.1527 59.9512C68.3928 59.7106 68.3928 59.3195 68.1527 59.0794C67.9125 58.8392 67.5222 58.8383 67.2809 59.0794C67.0409 59.3195 67.0409 59.7112 67.2816 59.9512C67.521 60.1907 67.9121 60.1907 68.1527 59.9512Z" fill="#FF9344" fill-opacity="0.35"/>
<path d="M64.268 53.7269C62.2441 53.7999 60.3864 54.5999 58.9057 55.6156C59.0716 56.7454 59.1889 58.1516 59.2513 59.8907C59.482 59.8632 59.7179 59.8778 59.9489 59.9399C60.9362 60.2039 61.5214 61.216 61.2562 62.2032C61.0327 63.0383 60.2784 63.5737 59.4742 63.5737C59.415 63.5737 59.356 63.556 59.2969 63.5503C59.2894 64.5357 59.2671 65.5106 59.2246 66.4416C59.8556 66.7038 60.3488 67.053 60.6708 67.5054C61.323 68.4217 61.1491 69.4962 61.0805 69.8042C60.8521 70.8274 61.4553 71.869 62.4889 72.0681C63.0731 72.18 63.6603 72.2353 64.2433 72.2353C69.3101 72.2353 73.5551 68.1196 73.5139 62.9264C73.4707 57.6594 68.9128 53.5519 64.268 53.7269ZM66.4091 58.2084C67.1311 57.4877 68.303 57.4877 69.0238 58.2084C69.7446 58.9292 69.7446 60.1018 69.0238 60.8225V60.8231C68.3031 61.5426 67.1305 61.5427 66.4098 60.8231C65.6896 60.1017 65.6896 58.9292 66.4091 58.2084ZM61.1714 58.7174C60.9091 57.7434 61.4811 56.7212 62.4781 56.4547C63.4581 56.1918 64.4767 56.7765 64.7414 57.7614C65.006 58.7466 64.4221 59.7603 63.4347 60.0247C62.4497 60.2886 61.436 59.7072 61.1714 58.7174ZM65.9856 69.5461C65.0009 69.8098 63.9864 69.2234 63.7223 68.2393C63.4577 67.2541 64.0415 66.2404 65.029 65.976C66.0206 65.7122 67.0289 66.2981 67.2923 67.2834C67.5577 68.2701 66.9709 69.2826 65.9856 69.5461ZM70.7775 64.7541C70.5136 65.7414 69.4991 66.3257 68.5142 66.0608C67.5296 65.7972 66.9418 64.7866 67.2075 63.7975C67.4742 62.8012 68.4946 62.2292 69.4708 62.4908C70.4557 62.7549 71.0417 63.7705 70.7775 64.7541Z" fill="#FF9344" fill-opacity="0.35"/>
<path d="M69.1522 63.681C68.8295 63.594 68.4878 63.782 68.3978 64.1165C68.3088 64.4485 68.5068 64.7834 68.8328 64.871C69.1701 64.9581 69.5004 64.7604 69.5878 64.4354C69.6756 64.1076 69.4801 63.7688 69.1522 63.681Z" fill="#FF9344" fill-opacity="0.35"/>
<path d="M58.0639 63.6162C58.0657 63.41 58.0714 63.2071 58.0714 63.0001C58.0714 58.2226 57.7507 52.486 56.2232 52.486C54.6957 52.486 54.375 58.2226 54.375 63.0001C54.375 63.2071 54.3807 63.41 54.3824 63.6162H58.0639Z" fill="#FF9344" fill-opacity="0.35"/>
<path d="M56.2231 66.08C56.865 66.08 57.4602 66.2592 57.9867 66.5482C58.0133 65.9953 58.0337 65.4258 58.0479 64.8479H54.3982C54.4124 65.4258 54.4327 65.9953 54.4594 66.5482C54.986 66.2591 55.5811 66.08 56.2231 66.08Z" fill="#FF9344" fill-opacity="0.35"/>
<defs>
<filter id="filter0_d_4_253" x="0" y="0" width="166" height="166" filterUnits="userSpaceOnUse" color-interpolation-filters="sRGB">
<feFlood flood-opacity="0" result="BackgroundImageFix"/>
<feColorMatrix in="SourceAlpha" type="matrix" values="0 0 0 0 0 0 0 0 0 0 0 0 0 0 0 0 0 0 127 0" result="hardAlpha"/>
<feOffset dx="20" dy="20"/>
<feGaussianBlur stdDeviation="30"/>
<feColorMatrix type="matrix" values="0 0 0 0 0.427451 0 0 0 0 0.356863 0 0 0 0 0.254902 0 0 0 0.2 0"/>
<feBlend mode="normal" in2="BackgroundImageFix" result="effect1_dropShadow_4_253"/>
<feBlend mode="normal" in="SourceGraphic" in2="effect1_dropShadow_4_253" result="shape"/>
</filter>
</defs>
</svg>
